<?xml version="1.0" encoding="utf-8"?>
<!-- Generator: Adobe Illustrator 22.1.0, SVG Export Plug-In . SVG Version: 6.00 Build 0)  -->
<svg version="1.1" id="Layer_1" xmlns="http://www.w3.org/2000/svg" xmlns:xlink="http://www.w3.org/1999/xlink" x="0px" y="0px"
     viewBox="0 0 1285.5 254.8" style="enable-background:new 0 0 1285.5 254.8;" xml:space="preserve">
<style type="text/css">
    .st0{fill:#E30B5C;}
    .st1{fill:none;}
</style>
<g>
    <g>
        <g>
            <g>
                <path class="st0" d="M420.7,138c-7,3.2-14.1,11.2-31.6,11.2c-19.3,0-29.6-12.8-29.8-31.8c0.2-18.9,10.3-31.9,29.5-32
                    c0.2,0,0.3,0,0.5,0c13,0,19,4,19,12.8l24.6-1.6c0-19.9-17.2-33.3-45.5-33.3l0,0h-0.1h-0.1c-10,0-18.5,1.8-25.5,5
                    c-0.5,0.2-1.1,0.4-1.6,0.7c-17.6,8.5-28.5,26.1-28.6,48.5c0.1,22.4,11.1,40,28.6,48.5c7.4,3.4,16,5.4,25.8,5.6
                    c0.5,0,1,0.1,1.6,0.1c22.2,0,39.4-6.9,47-16.6L420.7,138z"/>
                <path class="st0" d="M557.8,171.5c-3.1,0-11.4-5.9-11.4-23.4v-43.4c0-25.7-16.8-41.4-47-41.4c-28.4,0-45.7,13.4-45.7,33.4
                    l24.6,1.6c0-8.7,7.2-13.9,20.1-13.9c14.1,0,21.3,7.8,21.3,19.7v5.1H518c-41.6,0.7-67.4,8.1-67.4,33.4
                    c0,17.5,12.8,29.1,35.8,29.1c22.6,0,31.6-11,34.7-17c1.8,11.4,9.4,16.9,23.1,16.9h13.6V171.5z M519.8,133.1
                    c0,9-9.6,17.7-26.2,17.7c-10.5,0-16.3-4-16.3-11.2c0-10.5,12.1-15,40.7-15.4h1.8V133.1z"/>
                <path class="st0" d="M599.8,95.1c0-6.1,4.4-10.7,12.7-12c1.9-0.2,3.8-0.3,5.7-0.3c11.7,0,17.1,3.6,17.1,11.5l22.1-1.4
                    c0-17.9-15.5-30-41.1-30c-15.7,0-27.3,4.7-34.4,13.2c-5.2,5.4-8.1,12.2-8.1,20.2c0,1.3,0.1,2.5,0.2,3.6c0,0.1,0,0.2,0,0.3h0.1
                    c4,34,60.6,24,60.6,41.8c0,6-6,10.1-18.4,10.1c-15.9,0-30.9-10.1-33.8-12.8L568.9,156c3.8,3.1,18.1,15.9,48.1,15.9
                    c28,0,45.4-12.1,45.4-31.1C662,100.3,599.8,117.3,599.8,95.1z"/>
                <g>
                    <path class="st1" d="M707.2,113.7h1.8c28.7-0.4,40.7-4.9,40.7-15.4c0-7.2-5.8-11.2-16.3-11.2c-10.3,0-17.9,3.4-22.2,8.1l0,0
                        c-0.7,1-1.3,2-1.9,3.1c-0.1,0.2-0.2,0.3-0.2,0.5c-0.6,1.2-1.1,2.4-1.6,3.8c-0.1,0.7-0.2,1.5-0.2,2.2L707.2,113.7L707.2,113.7z"
                        />
                    <path class="st0" d="M765.3,138.7c-4.7,5.4-12.5,11.6-27.5,11.6c-14.9,0-26.4-8.5-30.9-21.6l0.3-0.1h1.8
                        c41.6-0.7,67.4-8.1,67.4-33.4c0-2.5-0.3-5-0.8-7.2c-0.1-0.6-0.3-1.3-0.5-1.9c0-0.1-0.1-0.2-0.1-0.3c-1.3-4.1-3.4-7.7-6.5-10.7
                        c-8.1-7.6-20.7-12.1-36.8-12.1c-31.1,0-53.3,21.9-53.3,54.4c0,31.8,21.3,53.9,56.4,53.9c20.4,0,35.8-7.8,43.9-18.4L765.3,138.7
                        z M709,98.8c0.1-0.2,0.2-0.3,0.2-0.5c0.6-1.1,1.2-2.2,1.9-3.1l0,0c4.3-4.7,11.9-8.1,22.2-8.1c10.5,0,16.3,4,16.3,11.2
                        c0,10.5-12.1,15-40.7,15.4h-1.8v-9c0-0.7,0.1-1.5,0.2-2.2C707.9,101.2,708.4,100,709,98.8z"/>
                </g>
            </g>
        </g>
        <g>
            <path class="st0" d="M201.7,107.8c3.9,9.1,6.5,18.4,7.7,27.7c5.7-0.9,11.4-2.4,17-4.8c34.2-14.9,49.9-54.7,35-88.9
                s-54.7-49.9-88.9-35c-18.9,8.2-32.1,24.1-37.7,42.3C163.7,57.4,188.8,78.1,201.7,107.8z"/>
            <path class="st0" d="M147.6,245c43.7-19,67.8-64.4,61.8-109.4c-29.5,4.4-59.5-11.2-71.9-39.8c-6.7-15.3-7.2-31.7-2.6-46.6
                c-22.5-6.5-47.2-5.5-70.3,4.6c-52.8,22.9-77,84.4-54.1,137.2S94.8,267.9,147.6,245z"/>
        </g>
    </g>
    <g>
        <path class="st0" d="M918.5,170.4c0,32.6-20.7,54.2-51.8,54.2c-21.2,0-34-11.3-39.4-25.4c0.2,4.3,0,24.1,0,24.1h-16.7V64.4h19.8
            v70.9c6.8-11,18.7-19.6,37.4-19.6C897.8,115.7,918.5,137.5,918.5,170.4z M898.3,170.4c0-22.7-13.1-38-34-38
            c-22.5,0-33.8,20-33.8,35.8v4.3c0,16,10.6,35.6,35.1,35.6C885.4,208,898.3,192.9,898.3,170.4z"/>
        <path class="st0" d="M1043.9,170.6c0,32.2-21.8,54-54.7,54s-54.7-21.8-54.7-54s21.8-54.9,54.7-54.9S1043.9,138.4,1043.9,170.6z
             M1023.7,170.6c0-22.1-13.7-38.3-34.4-38.3s-34.4,16.2-34.4,38.3s13.7,37.4,34.4,37.4S1023.7,192.7,1023.7,170.6z"/>
        <path class="st0" d="M1169.5,170.6c0,32.2-21.8,54-54.7,54s-54.7-21.8-54.7-54s21.8-54.9,54.7-54.9S1169.5,138.4,1169.5,170.6z
             M1149.2,170.6c0-22.1-13.7-38.3-34.4-38.3s-34.4,16.2-34.4,38.3s13.7,37.4,34.4,37.4S1149.2,192.7,1149.2,170.6z"/>
        <path class="st0" d="M1216.6,174.5h-11.5v48.8h-19.8V64.4h19.8v94.1h14.6l36.5-41.4h22.7l-45,49.7l49.5,56.5h-25L1216.6,174.5z"/>
    </g>
</g>
</svg>
